<svg xmlns="http://www.w3.org/2000/svg" width="56" height="55" viewBox="0 0 56 55">
    <g fill="none" fill-rule="evenodd">
        <path fill="#0066F2" d="M44.414 23.922a7.725 7.725 0 1 1 .001-15.448 7.725 7.725 0 0 1-.001 15.448M52.29 25.853H36.538a3.68 3.68 0 0 0-2.133.683c.206.747.353 1.52.353 2.334v19.682c.53.293 1.13.473 1.78.473H52.29a3.71 3.71 0 0 0 3.71-3.71V29.563a3.71 3.71 0 0 0-3.71-3.71"/>
        <path fill="#499AFF" d="M25.95 54.819H4.946A4.947 4.947 0 0 1 0 49.87V28.87a4.946 4.946 0 0 1 4.947-4.948H25.95a4.946 4.946 0 0 1 4.947 4.948V49.87a4.947 4.947 0 0 1-4.947 4.948M15.448 21.348c-5.687 0-10.298-4.61-10.298-10.298C5.15 5.36 9.76.75 15.448.75s10.3 4.61 10.3 10.3c0 5.687-4.612 10.298-10.3 10.298"/>
        <path fill="#0246C6" d="M45.119 25.904l1.88 15.418a.861.861 0 0 1-.478.878l-1.728.844a.858.858 0 0 1-.703.025l-1.66-.68a.862.862 0 0 1-.528-.903l1.9-15.581h1.317"/>
        <path fill="#0246C6" d="M45.104 25.882h-1.307a.52.52 0 0 0-.395.182l-.681.798a.518.518 0 0 0-.037.625l.72 1.082a.52.52 0 0 0 .432.232h1.235a.518.518 0 0 0 .434-.234l.7-1.062a.523.523 0 0 0-.031-.618l-.667-.814a.52.52 0 0 0-.403-.19"/>
        <path fill="#0066F2" d="M16.4 24.008l2.806 23.037a1.283 1.283 0 0 1-.712 1.312l-2.58 1.262a1.286 1.286 0 0 1-1.053.035l-2.476-1.014a1.285 1.285 0 0 1-.793-1.347l2.839-23.285h1.968"/>
        <path fill="#0066F2" d="M16.378 23.975h-1.955a.779.779 0 0 0-.59.273l-1.016 1.192a.773.773 0 0 0-.056.932l1.074 1.617a.775.775 0 0 0 .648.347h1.844a.778.778 0 0 0 .65-.348l1.046-1.591a.778.778 0 0 0-.047-.92l-.996-1.217a.787.787 0 0 0-.602-.285"/>
    </g>
</svg>
