<svg xmlns="http://www.w3.org/2000/svg" xmlns:xlink="http://www.w3.org/1999/xlink" width="168" height="168" viewBox="0 0 168 168">
    <defs>
        <path id="a" d="M0 0h75v97H0z"/>
        <path id="c" d="M19.434 1.858L14.38 12.212l-11.3 1.816c-1.152.173-2.107.95-2.482 2.018a2.96 2.96 0 0 0 .703 3.068l8.27 8.236-1.965 11.626a2.964 2.964 0 0 0 .716 2.462 3.176 3.176 0 0 0 2.407 1.05c.532 0 1.056-.125 1.526-.366l10.019-5.416 10.053 5.416c.47.241.997.366 1.53.366a3.157 3.157 0 0 0 2.401-1.05c.604-.68.867-1.578.718-2.462L34.98 27.35l8.271-8.236a2.958 2.958 0 0 0 .872-3.057c-.37-1.077-1.337-1.862-2.494-2.03l-11.455-1.815-5.056-10.354C24.609.778 23.497.086 22.274.086c-1.223 0-2.33.692-2.84 1.772z"/>
    </defs>
    <g fill="none" fill-rule="evenodd">
        <circle cx="84" cy="84" r="84" fill="#E9EBEF" fill-rule="nonzero"/>
        <g opacity=".733">
            <g transform="translate(47 36)">
                <mask id="b" fill="#fff">
                    <use xlink:href="#a"/>
                </mask>
                <path fill="#A1A9B6" d="M69.962 0H5.039C2.226 0 0 2.282 0 5.165v86.74c0 4.085 4.57 6.61 7.966 4.085L34.57 76.528a4.823 4.823 0 0 1 5.86 0L67.033 95.99c3.28 2.403 7.968 0 7.968-4.204V5.166C75 2.281 72.774 0 69.962 0" mask="url(#b)"/>
            </g>
            <path fill="#EFEFEF" d="M106.439 68.956c-.375-1.073-1.348-1.851-2.513-2.021L92.39 65.127l-5.091-10.312c-.515-1.075-1.632-1.765-2.864-1.765s-2.349.69-2.86 1.765L76.48 65.127l-11.38 1.808c-1.158.172-2.122.948-2.497 2.013A2.924 2.924 0 0 0 63.308 72l8.333 8.202-1.98 11.578c-.15.879.113 1.776.721 2.452a3.214 3.214 0 0 0 2.422 1.046c.538 0 1.063-.124 1.54-.361l10.09-5.397 10.122 5.397a3.463 3.463 0 0 0 1.543.36 3.204 3.204 0 0 0 2.419-1.045c.608-.676.87-1.573.72-2.452L97.23 80.202 105.56 72a2.933 2.933 0 0 0 .879-3.044"/>
            <g transform="translate(62.16 52.835)">
                <mask id="d" fill="#fff">
                    <use xlink:href="#c"/>
                </mask>
                <path fill="#EFEFEF" d="M-3.027 47.682h52.604V-3.399H-3.027z" mask="url(#d)"/>
                <path fill="#EFEFEF" d="M-6.614 48.897h57.388V-7.049H-6.614z" mask="url(#d)"/>
                <path fill="#EFEFEF" d="M-.636 42.818h45.431V-.967H-.635z" mask="url(#d)"/>
                <path fill="#EFEFEF" d="M-5.543 48.567h55.77V-5.996h-55.77z" mask="url(#d)"/>
                <path fill="#EFEFEF" d="M-2.63 46.075h50.587V-2.934H-2.63z" mask="url(#d)"/>
                <path fill="#EFEFEF" d="M-.636 42.818h45.431V-.967H-.635z" mask="url(#d)"/>
                <path fill="#E9EBEF" d="M-8.609 52.157h62.543V-9.016H-8.61z" mask="url(#d)"/>
            </g>
        </g>
    </g>
</svg>
