<?xml version="1.0" encoding="UTF-8"?><!-- Generator: Adobe Illustrator 21.0.0, SVG Export Plug-In . SVG Version: 6.00 Build 0)  --><svg xmlns="http://www.w3.org/2000/svg" xmlns:xlink="http://www.w3.org/1999/xlink" contentScriptType="text/ecmascript" zoomAndPan="magnify" contentStyleType="text/css" id="Capa_1" style="enable-background:new 0 0 36 36;" version="1.1" xml:space="preserve" width="36px" preserveAspectRatio="xMidYMid meet" viewBox="0 0 36 36" height="36px" x="0px" y="0px">
<rect x="0" width="36" height="36" style="fill:#F1F1F1;"/>
<g>
	<rect width="12" x="12" height="17.8" y="8.5" style="fill:none;"/>
	<path style="fill:#333333;" d="M18,23c-3.1,0-3.8-1.7-3.8-5.2s0.6-5.2,3.8-5.2s3.8,1.7,3.8,5.2S21.1,23,18,23z M18,21.6   c1.9,0,2-1.5,2-3.8S19.9,14,18,14s-2,1.5-2,3.8S16.1,21.6,18,21.6z"/>
</g>
<circle fill="#5183AF" r="0.5" cx="5" cy="3"/>
<circle fill="#5183AF" r="0.5" cx="15" cy="3"/>
<circle fill="#5183AF" r="0.5" cx="26" cy="29"/>
</svg>