<?xml version="1.0" encoding="UTF-8"?><!-- Generator: Adobe Illustrator 21.0.0, SVG Export Plug-In . SVG Version: 6.00 Build 0)  --><svg xmlns="http://www.w3.org/2000/svg" xmlns:xlink="http://www.w3.org/1999/xlink" contentScriptType="text/ecmascript" zoomAndPan="magnify" contentStyleType="text/css" id="Capa_1" style="enable-background:new 0 0 36 36;" version="1.1" xml:space="preserve" width="36px" preserveAspectRatio="xMidYMid meet" viewBox="0 0 36 36" height="36px" x="0px" y="0px">
<rect x="0" width="36" height="36" style="fill:#F1F1F1;"/>
<g>
	<rect width="12" x="12" height="17.8" y="8.5" style="fill:none;"/>
	<path style="fill:#333333;" d="M21.3,15.2c0,1.1-0.5,1.9-1.5,2.4c1,0.4,1.6,1,1.6,2.3c0,2.4-1.5,3.2-3.9,3.2   c-1.2,0-2.2-0.1-3.1-0.3l0.2-1.4c0.8,0.1,1.7,0.2,2.5,0.2c1.7,0,2.4-0.3,2.4-1.6c0-0.9-0.4-1.4-1.2-1.5c-0.6-0.1-1.3-0.1-2.1-0.1   H16V17c0.8,0,1.6-0.1,2.3-0.2c0.8-0.1,1.1-0.6,1.1-1.4c0-1.2-0.9-1.3-2.1-1.3c-0.9,0-1.8,0.1-2.7,0.2L14.4,13   c0.9-0.2,1.9-0.3,3-0.3C19.5,12.6,21.3,13,21.3,15.2z"/>
</g>
<circle fill="#5183AF" r="0.5" cx="33" cy="21"/>
<circle fill="#5183AF" r="0.5" cx="22" cy="1"/>
</svg>