<?xml version="1.0" encoding="UTF-8"?><!-- Generator: Adobe Illustrator 21.0.0, SVG Export Plug-In . SVG Version: 6.00 Build 0)  --><svg xmlns="http://www.w3.org/2000/svg" xmlns:xlink="http://www.w3.org/1999/xlink" contentScriptType="text/ecmascript" zoomAndPan="magnify" contentStyleType="text/css" id="Capa_1" style="enable-background:new 0 0 36 36;" version="1.1" xml:space="preserve" width="36px" preserveAspectRatio="xMidYMid meet" viewBox="0 0 36 36" height="36px" x="0px" y="0px">
<rect x="0" width="36" height="36" style="fill:#F1F1F1;"/>
<g>
	<rect width="12" x="12" height="17.8" y="8.5" style="fill:none;"/>
	<path style="fill:#333333;" d="M18.9,20.6h-3.7c-1,0-1.2-0.4-1.2-0.9c0-0.3,0.1-0.7,0.7-1.5l3.6-4.6c0.5-0.7,0.9-0.9,1.5-0.9   c0.5,0,0.9,0.3,0.9,1.1v5.5H22v1.3h-1.3V23H19v-2.4H18.9z M15.7,19.2h3.2V15L15.7,19.2z"/>
</g>
<circle fill="#5183AF" r="0.5" cx="4" cy="27"/>
<circle fill="#5183AF" r="0.5" cx="3" cy="31"/>
<circle fill="#5183AF" r="0.5" cx="2" cy="28"/>
</svg>