<?xml version="1.0" encoding="UTF-8"?><!-- Generator: Adobe Illustrator 21.0.0, SVG Export Plug-In . SVG Version: 6.00 Build 0)  --><svg xmlns="http://www.w3.org/2000/svg" xmlns:xlink="http://www.w3.org/1999/xlink" contentScriptType="text/ecmascript" zoomAndPan="magnify" contentStyleType="text/css" id="Capa_1" style="enable-background:new 0 0 36 36;" version="1.1" xml:space="preserve" width="36px" preserveAspectRatio="xMidYMid meet" viewBox="0 0 36 36" height="36px" x="0px" y="0px">
<rect x="0" width="36" height="36" style="fill:#F1F1F1;"/>
<g>
	<rect width="12" x="12" height="17.8" y="8.5" style="fill:none;"/>
	<path style="fill:#333333;" d="M14.7,21.3c0.8,0.1,1.7,0.2,2.5,0.2c1.8,0,2.4-0.2,2.4-2c0-1.4-1.5-1.6-2.8-1.6c-0.7,0-1.3,0-2,0   l0.4-5.3h6.1v1.5h-4.6l-0.2,2.4c0.2,0,0.5,0,0.7,0c2.5,0,4.3,0.4,4.3,3.1c0,2.4-1.3,3.3-3.8,3.3c-1.1,0-2.2-0.1-3.2-0.3L14.7,21.3z   "/>
</g>
<circle fill="#5183AF" r="0.5" cx="29" cy="3"/>
<circle fill="#5183AF" r="0.5" cx="32" cy="28"/>
<circle fill="#5183AF" r="0.5" cx="32" cy="28"/>
</svg>