<?xml version="1.0" encoding="UTF-8"?><!-- Generator: Adobe Illustrator 21.0.0, SVG Export Plug-In . SVG Version: 6.00 Build 0)  --><svg xmlns="http://www.w3.org/2000/svg" xmlns:xlink="http://www.w3.org/1999/xlink" contentScriptType="text/ecmascript" zoomAndPan="magnify" contentStyleType="text/css" id="Capa_1" style="enable-background:new 0 0 36 36;" version="1.1" xml:space="preserve" width="36px" preserveAspectRatio="xMidYMid meet" viewBox="0 0 36 36" height="36px" x="0px" y="0px">
<rect x="0" width="36" height="36" style="fill:#F1F1F1;"/>
<g>
	<rect width="12" x="12" height="17.8" y="8.5" style="fill:none;"/>
	<path style="fill:#333333;" d="M18,12.6c1.7,0,3.6,0.5,3.6,2.5c0,1.1-0.2,1.8-1.5,2.5c1,0.6,1.6,1.2,1.6,2.5c0,2.4-1.7,2.9-3.8,2.9   c-2.2,0-3.8-0.7-3.8-2.9c0-1.3,0.6-1.9,1.6-2.5c-1-0.6-1.5-1.2-1.5-2.5C14.4,13.1,16.2,12.6,18,12.6z M18,21.6c1.1,0,2-0.3,2-1.6   c0-1.1-0.4-1.6-2.5-1.8c-1,0.2-1.6,0.7-1.6,1.8C16,21.4,16.8,21.6,18,21.6z M18.4,16.9c1-0.2,1.5-0.6,1.5-1.6c0-1.2-0.9-1.4-2-1.4   S16,14.1,16,15.3C16.1,16.2,16.4,16.8,18.4,16.9z"/>
</g>
<circle fill="#5183AF" r="0.5" cx="23" cy="2"/>
<circle fill="#5183AF" r="0.5" cx="9" cy="29"/>
<circle fill="#5183AF" r="0.5" cx="2" cy="4"/>
</svg>