<?xml version="1.0" encoding="UTF-8"?><!-- Generator: Adobe Illustrator 21.0.0, SVG Export Plug-In . SVG Version: 6.00 Build 0)  --><svg xmlns="http://www.w3.org/2000/svg" xmlns:xlink="http://www.w3.org/1999/xlink" contentScriptType="text/ecmascript" zoomAndPan="magnify" contentStyleType="text/css" id="Capa_1" style="enable-background:new 0 0 36 36;" version="1.1" xml:space="preserve" width="36px" preserveAspectRatio="xMidYMid meet" viewBox="0 0 36 36" height="36px" x="0px" y="0px">
<rect x="0" width="36" height="36" style="fill:#F1F1F1;"/>
<g>
	<rect width="12" x="12" height="17.8" y="8.5" style="fill:none;"/>
	<path style="fill:#333333;" d="M14.1,16c0-2.7,1.5-3.3,3.9-3.3c3,0,3.7,1.6,3.7,4.2c0,4.7-1,6.2-5.6,6.2c-0.1,0-0.3,0-1.1,0   l-0.1-1.4c1.8-0.1,5,0.3,5-2.6c-0.5,0.1-1.3,0.2-2,0.2C15.5,19.2,14.1,18.5,14.1,16z M18,14c-1.7,0-2.2,0.5-2.2,1.9   c0,1.5,0.8,1.8,2.2,1.8c0.6,0,1.3-0.1,1.8-0.2c0-0.3,0-0.7,0-1C19.9,15.3,19.7,14,18,14z"/>
</g>
<circle fill="#5183AF" r="0.5" cx="1" cy="20"/>
<circle fill="#5183AF" r="0.5" cx="17" cy="19"/>
</svg>