<?xml version="1.0" encoding="iso-8859-1"?>
<!-- Generator: Adobe Illustrator 21.1.0, SVG Export Plug-In . SVG Version: 6.00 Build 0)  -->
<svg version="1.1" xmlns="http://www.w3.org/2000/svg" xmlns:xlink="http://www.w3.org/1999/xlink" x="0px" y="0px" width="36px"
	 height="36px" viewBox="0 0 36 36" enable-background="new 0 0 36 36" xml:space="preserve">
<g id="Capa_1">
	<rect fill="#F1F1F1" width="36" height="36"/>
	<path display="none" fill="#5183AF" d="M13.669,12.935c-0.012,0-0.024,0-0.035,0c-1.878,1.656-3.754,3.313-5.63,4.969
		c1.876,1.677,3.752,3.355,5.628,5.031c3.787,0,7.575,0,11.364,0c0-3.333,0-6.667,0-9.998C21.22,12.935,17.443,12.935,13.669,12.935
		z M23.029,20.207l-1.373,1.439l-2.321-2.288l-2.278,2.276l-1.426-1.364l0.345-0.373l1.933-1.961l-2.275-2.275l1.377-1.438
		l2.32,2.287l2.274-2.274l1.439,1.375l-2.289,2.32L23.029,20.207z"/>
</g>
<g id="Layer_2" display="none" opacity="0.46">
	<g id="Page-1" display="inline">
		<g id="Group-87-Copy">
			<path id="Stroke-81" fill="#5183AF" d="M10.159,16.946l4.125-3.727c0.275-0.248,0.648-0.388,1.037-0.388h9.483
				c0.809,0,1.466,0.593,1.466,1.324v7.454c0,0.732-0.657,1.325-1.466,1.325h-9.483c-0.389,0-0.762-0.139-1.037-0.388l-4.125-3.727
				C9.586,18.303,9.586,17.463,10.159,16.946z"/>
			<g>
				<path id="Stroke-83" fill="none" stroke="#F1F1F1" stroke-width="1.75" d="M17.463,15.525l4.713,4.715"/>
				<path id="Stroke-85" fill="none" stroke="#F1F1F1" stroke-width="1.75" d="M22.176,15.525l-4.713,4.715"/>
			</g>
		</g>
	</g>
</g>
<g id="Layer_3">
	<g id="Page-1_1_">
		<g id="Group" transform="translate(-1.000000, -1.000000)">
			<path id="Combined-Shape" fill="#5183AF" d="M18.756,24.752h-5.087l-2.682-2.659c-0.65-0.644-0.65-1.688,0-2.332l2.822-2.797
				l6.402,6.346L18.756,24.752z M21.189,22.341l-6.402-6.346l4.254-4.217c0.65-0.644,1.703-0.644,2.352,0l4.049,4.014
				c0.65,0.644,0.65,1.688,0,2.332L21.189,22.341z"/>
			<path id="Fill-4" fill="none" stroke="#5183AF" stroke-miterlimit="10" d="M26.668,23.803h-4.881
				c-0.184,0-0.332,0.123-0.332,0.275c0,0.152,0.148,0.275,0.332,0.275h4.881c0.184,0,0.332-0.123,0.332-0.275
				C27,23.926,26.852,23.803,26.668,23.803"/>
		</g>
	</g>
</g>
</svg>
